<svg aria-hidden="true" style="position: absolute; width: 0; height: 0; overflow: hidden;" version="1.1" xmlns="http://www.w3.org/2000/svg" xmlns:xlink="http://www.w3.org/1999/xlink">
<defs>
<symbol id="icon-close-modal-desktop-tablet-burgermenu" viewBox="0 0 32 32">
<path fill="none" stroke-linejoin="round" stroke-linecap="round" stroke-miterlimit="4" stroke-width="1.7333" d="M24.016 8.005l-16.010 16.010M8.005 8.005l16.010 16.010"></path>
</symbol>
<symbol id="icon-close-modal-mobile" viewBox="0 0 32 32">
<path fill="none" stroke="#fff" style="stroke: var(--color1, #fff)" stroke-linejoin="round" stroke-linecap="round" stroke-miterlimit="4" stroke-width="2.0800" d="M24 8l-16 16M8 8l16 16"></path>
</symbol>
<symbol id="icon-facebook-desktop-tablet" viewBox="0 0 32 32">
<path fill="#fff" style="fill: var(--color1, #fff)" opacity="0.8" d="M19.528 4.642h0.96v3.602h-1.2c-0.48 0-0.96 0-1.2 0.24s-0.24 0.48-0.24 1.040v1.281h2.641v3.041h-2.641v13.206h-4.082v-13.286h-2.161v-3.041h2.161v-1.040c0-1.761 0.24-3.041 0.72-3.601 0.72-1.040 2.161-1.521 4.322-1.521 0.24 0.080 0.48 0.080 0.72 0.080z"></path>
</symbol>
<symbol id="icon-facebook-mobile" viewBox="0 0 32 32">
<path fill="#fff" style="fill: var(--color1, #fff)" opacity="0.8" d="M19.533 4.643h0.961v3.602h-1.201c-0.48 0-0.961 0-1.201 0.24s-0.24 0.48-0.24 1.041v1.281h2.642v3.042h-2.642v13.209h-4.083v-13.289h-2.161v-3.042h2.161v-1.041c0-1.761 0.24-3.042 0.72-3.602 0.72-1.041 2.161-1.521 4.323-1.521 0.24 0.080 0.48 0.080 0.72 0.080z"></path>
</symbol>
<symbol id="icon-heart" viewBox="0 0 32 32">
<path fill="none" stroke="#fff" style="stroke: var(--color1, #fff)" stroke-linejoin="round" stroke-linecap="round" stroke-miterlimit="4" stroke-width="2.6667" d="M27.805 6.151c-1.328-1.329-3.163-2.151-5.19-2.151s-3.862 0.822-5.19 2.15l-1.414 1.414-1.414-1.414c-1.328-1.328-3.163-2.15-5.19-2.15-4.054 0-7.34 3.286-7.34 7.34 0 2.027 0.822 3.862 2.15 5.19l11.794 11.794 11.794-11.794c1.329-1.328 2.151-3.163 2.151-5.19s-0.822-3.862-2.15-5.19l-0-0z"></path>
</symbol>
<symbol id="icon-instagram-desktop-tablet" viewBox="0 0 32 32">
<path fill="#fff" style="fill: var(--color1, #fff)" opacity="0.8" d="M28.73 10.76c-0.016-1.134-0.233-2.213-0.617-3.209l0.021 0.063c-0.682-1.722-2.022-3.060-3.701-3.723l-0.044-0.015c-0.921-0.356-1.986-0.573-3.099-0.597l-0.010-0c-1.367-0.061-1.802-0.078-5.273-0.078-3.473 0-3.918 0-5.277 0.078-1.063 0.023-2.113 0.223-3.108 0.597-1.724 0.679-3.063 2.016-3.729 3.694l-0.015 0.044c-0.357 0.919-0.574 1.982-0.596 3.093l-0 0.009c-0.062 1.367-0.080 1.801-0.080 5.267 0 3.468 0 3.91 0.080 5.267 0.021 1.063 0.222 2.111 0.595 3.105 0.682 1.722 2.022 3.059 3.702 3.722l0.044 0.015c0.918 0.369 1.98 0.6 3.092 0.638l0.015 0c1.37 0.062 1.804 0.080 5.277 0.080 3.473 0 3.918 0 5.276-0.080 1.122-0.023 2.188-0.239 3.173-0.616l-0.064 0.022c1.723-0.68 3.062-2.017 3.729-3.694l0.016-0.044c0.374-0.994 0.575-2.041 0.596-3.104 0.062-1.366 0.080-1.8 0.080-5.268-0.002-3.467-0.002-3.907-0.082-5.266zM15.995 22.541c-0.002 0-0.004 0-0.006 0-3.626 0-6.566-2.938-6.568-6.564v-0c0.002-3.626 2.941-6.564 6.567-6.564 0.002 0 0.005 0 0.007 0h-0c3.63 0 6.574 2.938 6.574 6.563-0.003 3.626-2.943 6.565-6.57 6.565-0.002 0-0.003 0-0.005 0h0zM22.832 10.7c-0.845 0-1.53-0.685-1.53-1.53s0.685-1.53 1.53-1.53v0c0.012-0 0.027-0.001 0.042-0.001 0.846 0 1.531 0.685 1.531 1.531s-0.685 1.531-1.531 1.531c-0.015 0-0.029-0-0.044-0.001l0.002 0z"></path>
<path fill="#fff" style="fill: var(--color1, #fff)" opacity="0.8" d="M15.999 19.984c0.020 0 0.044 0.001 0.068 0.001 2.213 0 4.006-1.794 4.006-4.006s-1.794-4.006-4.006-4.006c-0.024 0-0.048 0-0.071 0.001l0.004-0c-2.183 0.038-3.939 1.817-3.939 4.006s1.755 3.968 3.935 4.006l0.004 0z"></path>
</symbol>
<symbol id="icon-instagram-mobile" viewBox="0 0 32 32">
<path fill="#fff" style="fill: var(--color1, #fff)" opacity="0.8" d="M28.736 10.763c-0.016-1.135-0.233-2.214-0.618-3.211l0.021 0.063c-0.682-1.722-2.021-3.060-3.701-3.723l-0.044-0.015c-0.921-0.356-1.986-0.573-3.099-0.596l-0.010-0c-1.369-0.061-1.804-0.079-5.277-0.079-3.474 0-3.92 0-5.278 0.079-1.123 0.024-2.188 0.24-3.173 0.618l0.064-0.022c-1.724 0.679-3.064 2.016-3.73 3.694l-0.015 0.044c-0.357 0.919-0.574 1.983-0.595 3.094l-0 0.009c-0.061 1.368-0.080 1.801-0.080 5.269 0 3.469 0 3.911 0.080 5.269 0.022 1.121 0.239 2.186 0.617 3.17l-0.022-0.064c0.683 1.722 2.023 3.059 3.703 3.722l0.044 0.015c0.99 0.387 2.041 0.606 3.109 0.64 1.369 0.060 1.803 0.079 5.277 0.079s3.919 0 5.278-0.080c1.122-0.023 2.188-0.239 3.173-0.617l-0.064 0.022c1.723-0.68 3.062-2.017 3.73-3.694l0.016-0.044c0.357-0.92 0.574-1.984 0.596-3.096l0-0.010c0.061-1.366 0.080-1.8 0.080-5.27-0.003-3.466-0.003-3.907-0.083-5.266zM16 22.545c-0.002 0-0.004 0-0.007 0-3.626 0-6.567-2.938-6.57-6.564v-0c0.002-3.627 2.943-6.566 6.57-6.566 0.003 0 0.006 0 0.008 0h-0c0.002 0 0.003 0 0.005 0 3.627 0 6.567 2.938 6.571 6.564v0c-0.003 3.627-2.944 6.566-6.571 6.566-0.002 0-0.005 0-0.007 0h0zM22.839 10.703c-0.846 0-1.531-0.685-1.531-1.531s0.685-1.531 1.531-1.531v0c0.846 0 1.531 0.685 1.531 1.531s-0.685 1.531-1.531 1.531v0z"></path>
<path fill="#fff" style="fill: var(--color1, #fff)" opacity="0.8" d="M16.002 19.989c2.213 0 4.007-1.794 4.007-4.007s-1.794-4.007-4.007-4.007v0c-2.213 0-4.007 1.794-4.007 4.007s1.794 4.007 4.007 4.007v0z"></path>
</symbol>
<symbol id="icon-open-burgermenu" viewBox="0 0 32 32">
<path fill="#fff" style="fill: var(--color1, #fff)" d="M2.668 7.999c0-0.734 0.595-1.328 1.328-1.328h10.687c0.733 0 1.328 0.594 1.328 1.328s-0.594 1.328-1.328 1.328h-10.687c-0.733 0-1.328-0.594-1.328-1.328v0zM2.668 16.010c0-0.734 0.595-1.328 1.328-1.328h24.029c0.733 0 1.328 0.594 1.328 1.328s-0.594 1.328-1.328 1.328h-24.029c-0.733 0-1.328-0.594-1.328-1.328v0zM3.996 22.695c-0.733 0-1.328 0.594-1.328 1.328s0.594 1.328 1.328 1.328h16.024c0.733 0 1.328-0.594 1.328-1.328s-0.594-1.328-1.328-1.328h-16.024z"></path>
</symbol>
<symbol id="icon-slider-left-desktop-tablet" viewBox="0 0 32 32">
<path fill="none" stroke="#fff" style="stroke: var(--color1, #fff)" stroke-linejoin="round" stroke-linecap="round" stroke-miterlimit="4" stroke-width="1.3333" d="M20.013 24.016l-8.005-8.005 8.005-8.005"></path>
</symbol>
<symbol id="icon-slider-left-mobile" viewBox="0 0 32 32">
<path fill="none" stroke="#fff" style="stroke: var(--color1, #fff)" stroke-linejoin="round" stroke-linecap="round" stroke-miterlimit="4" stroke-width="1.7778" d="M20.013 24.016l-8.005-8.005 8.005-8.005"></path>
</symbol>
<symbol id="icon-slider-rith-desktop-tablet" viewBox="0 0 32 32">
<path fill="none" stroke="#fff" style="stroke: var(--color1, #fff)" stroke-linejoin="round" stroke-linecap="round" stroke-miterlimit="4" stroke-width="1.3333" d="M12.008 24.016l8.005-8.005-8.005-8.005"></path>
</symbol>
<symbol id="icon-slider-rith-mobile" viewBox="0 0 32 32">
<path fill="none" stroke="#fff" style="stroke: var(--color1, #fff)" stroke-linejoin="round" stroke-linecap="round" stroke-miterlimit="4" stroke-width="1.7778" d="M12.008 24.016l8.005-8.005-8.005-8.005"></path>
</symbol>
<symbol id="icon-youtube-desctop-tablet" viewBox="0 0 32 32">
<path fill="#fff" style="fill: var(--color1, #fff)" opacity="0.8" d="M24.25 6.003c-1.361-0.080-4.162-0.16-8.404-0.16h-0.56c-4.082 0-6.803 0.080-8.163 0.24-1.841 0.16-3.121 0.64-3.842 1.281-0.64 0.56-1.12 1.601-1.281 2.961-0.080 0.88-0.16 2.721-0.16 5.522v0.4c0 2.641 0.080 4.482 0.24 5.362 0.24 1.281 0.64 2.241 1.441 2.801 0.8 0.64 2.161 1.040 4.082 1.201 1.361 0.080 4.162 0.16 8.404 0.16h0.56c4.082 0 6.803-0.080 8.163-0.24 1.841-0.16 3.121-0.64 3.842-1.281 0.64-0.56 1.12-1.601 1.281-2.961 0.080-0.88 0.16-2.721 0.16-5.522v-0.4c0-2.641-0.080-4.482-0.24-5.362-0.24-1.281-0.64-2.241-1.441-2.801-0.8-0.64-2.161-1.040-4.082-1.2zM21.129 15.847l-8.804 5.282v-10.564l8.804 5.282z"></path>
</symbol>
<symbol id="icon-youtube-mobile" viewBox="0 0 32 32">
<path fill="#fff" style="fill: var(--color1, #fff)" opacity="0.8" d="M24.256 6.004c-1.361-0.080-4.163-0.16-8.405-0.16h-0.56c-4.083 0-6.804 0.080-8.165 0.24-1.841 0.16-3.122 0.64-3.842 1.281-0.64 0.56-1.121 1.601-1.281 2.962-0.080 0.881-0.16 2.722-0.16 5.524v0.4c0 2.642 0.080 4.483 0.24 5.364 0.24 1.281 0.64 2.241 1.441 2.802 0.801 0.64 2.161 1.041 4.083 1.201 1.361 0.080 4.163 0.16 8.405 0.16h0.56c4.083 0 6.804-0.080 8.165-0.24 1.841-0.16 3.122-0.64 3.843-1.281 0.64-0.56 1.121-1.601 1.281-2.962 0.080-0.881 0.16-2.722 0.16-5.524v-0.4c0-2.642-0.080-4.483-0.24-5.364-0.24-1.281-0.64-2.241-1.441-2.802-0.801-0.64-2.161-1.041-4.083-1.201zM21.134 15.85l-8.806 5.283v-10.567l8.806 5.283z"></path>
</symbol>
</defs>
</svg>
