<svg width="72" height="78" fill="none" xmlns="http://www.w3.org/2000/svg"><g filter="url(#a)"><path d="m51.161 38.205-8.434-19.32-1.84-1.276-2.156-.686-2.917-.785-3.425 1.471-2.283 1.275 8.625 19.321h12.43Z" fill="url(#b)"/></g><g filter="url(#c)"><path d="m20.893 31.743 8.434 19.366 1.84 1.278 2.156.688 2.917.787 3.425-1.475 2.283-1.278-8.625-19.366h-12.43Z" fill="url(#d)"/></g><path d="M29.654 19.136 16.56 38.064l13.095.14 9.465-19.068c.665-1.95 2.744-.813 3.701 0-4.088-7.49-10.481-3.121-13.166 0ZM42.346 50.864 55.44 31.936l-13.094-.14-9.466 19.068c-.665 1.95-2.744.813-3.701 0 4.088 7.49 10.481 3.121 13.167 0Z" fill="#fff"/><defs><linearGradient id="b" x1="48.98" y1="38.205" x2="38.977" y2="19.491" gradientUnits="userSpaceOnUse"><stop/><stop offset=".495" stop-color="#fff"/><stop offset="1" stop-color="#fff"/></linearGradient><linearGradient id="d" x1="23.074" y1="31.743" x2="33.114" y2="50.482" gradientUnits="userSpaceOnUse"><stop stop-color="#0C0C0C"/><stop offset=".495" stop-color="#fff"/><stop offset="1" stop-color="#fff"/></linearGradient><filter id="a" x="10.106" y=".138" width="61.055" height="62.067" filterUnits="userSpaceOnUse" color-interpolation-filters="sRGB"><feFlood flood-opacity="0" result="BackgroundImageFix"/><feColorMatrix in="SourceAlpha" values="0 0 0 0 0 0 0 0 0 0 0 0 0 0 0 0 0 0 127 0" result="hardAlpha"/><feOffset dy="4"/><feGaussianBlur stdDeviation="10"/><feComposite in2="hardAlpha" operator="out"/><feColorMatrix values="0 0 0 0 0 0 0 0 0 0 0 0 0 0 0 0 0 0 0.25 0"/><feBlend in2="BackgroundImageFix" result="effect1_dropShadow_74_1186"/><feBlend in="SourceGraphic" in2="effect1_dropShadow_74_1186" result="shape"/></filter><filter id="c" x=".893" y="15.743" width="61.055" height="62.119" filterUnits="userSpaceOnUse" color-interpolation-filters="sRGB"><feFlood flood-opacity="0" result="BackgroundImageFix"/><feColorMatrix in="SourceAlpha" values="0 0 0 0 0 0 0 0 0 0 0 0 0 0 0 0 0 0 127 0" result="hardAlpha"/><feOffset dy="4"/><feGaussianBlur stdDeviation="10"/><feComposite in2="hardAlpha" operator="out"/><feColorMatrix values="0 0 0 0 0 0 0 0 0 0 0 0 0 0 0 0 0 0 0.25 0"/><feBlend in2="BackgroundImageFix" result="effect1_dropShadow_74_1186"/><feBlend in="SourceGraphic" in2="effect1_dropShadow_74_1186" result="shape"/></filter></defs></svg>